<svg xmlns="http://www.w3.org/2000/svg" viewBox="0 0 120 28" fill="none">
  <g transform="translate(2, 2)">
    <circle cx="11.475" cy="6.375" r="0.36" fill="#18181b"/>
    <circle cx="12.325" cy="6.375" r="0.36" fill="#18181b"/>
    <circle cx="13.175" cy="6.375" r="0.36" fill="#18181b"/>
    <circle cx="16.575" cy="6.375" r="0.36" fill="#18181b"/>
    <circle cx="17.425" cy="6.375" r="0.36" fill="#18181b"/>
    <circle cx="18.275" cy="6.375" r="0.36" fill="#18181b"/>
    <circle cx="9.775" cy="7.225" r="0.36" fill="#18181b"/>
    <circle cx="10.625" cy="7.225" r="0.36" fill="#18181b"/>
    <circle cx="11.475" cy="7.225" r="0.36" fill="#18181b"/>
    <circle cx="12.325" cy="7.225" r="0.36" fill="#18181b"/>
    <circle cx="13.175" cy="7.225" r="0.36" fill="#18181b"/>
    <circle cx="14.025" cy="7.225" r="0.36" fill="#18181b"/>
    <circle cx="14.875" cy="7.225" r="0.36" fill="#18181b"/>
    <circle cx="15.725" cy="7.225" r="0.36" fill="#18181b"/>
    <circle cx="16.575" cy="7.225" r="0.36" fill="#18181b"/>
    <circle cx="17.425" cy="7.225" r="0.36" fill="#18181b"/>
    <circle cx="18.275" cy="7.225" r="0.36" fill="#18181b"/>
    <circle cx="19.125" cy="7.225" r="0.36" fill="#18181b"/>
    <circle cx="8.925" cy="8.075" r="0.36" fill="#18181b"/>
    <circle cx="9.775" cy="8.075" r="0.36" fill="#18181b"/>
    <circle cx="10.625" cy="8.075" r="0.36" fill="#18181b"/>
    <circle cx="19.125" cy="8.075" r="0.36" fill="#18181b"/>
    <circle cx="19.975" cy="8.075" r="0.36" fill="#18181b"/>
    <circle cx="3.825" cy="9.775" r="0.36" fill="#18181b"/>
    <circle cx="4.675" cy="9.775" r="0.36" fill="#18181b"/>
    <circle cx="5.525" cy="9.775" r="0.36" fill="#18181b"/>
    <circle cx="6.375" cy="9.775" r="0.36" fill="#18181b"/>
    <circle cx="7.225" cy="9.775" r="0.36" fill="#18181b"/>
    <circle cx="8.075" cy="9.775" r="0.36" fill="#18181b"/>
    <circle cx="19.975" cy="9.775" r="0.36" fill="#18181b"/>
    <circle cx="20.825" cy="9.775" r="0.36" fill="#18181b"/>
    <circle cx="2.975" cy="11.475" r="0.36" fill="#18181b"/>
    <circle cx="3.825" cy="11.475" r="0.36" fill="#18181b"/>
    <circle cx="21.675" cy="11.475" r="0.36" fill="#18181b"/>
    <circle cx="22.525" cy="11.475" r="0.36" fill="#18181b"/>
    <circle cx="2.975" cy="13.175" r="0.36" fill="#18181b"/>
    <circle cx="3.825" cy="13.175" r="0.36" fill="#18181b"/>
    <circle cx="21.675" cy="13.175" r="0.36" fill="#18181b"/>
    <circle cx="22.525" cy="13.175" r="0.36" fill="#18181b"/>
    <circle cx="2.975" cy="14.875" r="0.36" fill="#18181b"/>
    <circle cx="3.825" cy="14.875" r="0.36" fill="#18181b"/>
    <circle cx="21.675" cy="14.875" r="0.36" fill="#18181b"/>
    <circle cx="2.975" cy="15.725" r="0.36" fill="#18181b"/>
    <circle cx="3.825" cy="15.725" r="0.36" fill="#18181b"/>
    <circle cx="20.825" cy="15.725" r="0.36" fill="#18181b"/>
    <circle cx="21.675" cy="15.725" r="0.36" fill="#18181b"/>
    <circle cx="4.675" cy="17.425" r="0.36" fill="#18181b"/>
    <circle cx="5.525" cy="17.425" r="0.36" fill="#18181b"/>
    <circle cx="6.375" cy="17.425" r="0.36" fill="#18181b"/>
    <circle cx="18.275" cy="17.425" r="0.36" fill="#18181b"/>
    <circle cx="19.125" cy="17.425" r="0.36" fill="#18181b"/>
    <!-- fill dots -->
    <circle cx="11.475" cy="8.075" r="0.36" fill="#18181b"/>
    <circle cx="12.325" cy="8.075" r="0.36" fill="#18181b"/>
    <circle cx="13.175" cy="8.075" r="0.36" fill="#18181b"/>
    <circle cx="14.025" cy="8.075" r="0.36" fill="#18181b"/>
    <circle cx="14.875" cy="8.075" r="0.36" fill="#18181b"/>
    <circle cx="15.725" cy="8.075" r="0.36" fill="#18181b"/>
    <circle cx="16.575" cy="8.075" r="0.36" fill="#18181b"/>
    <circle cx="17.425" cy="8.075" r="0.36" fill="#18181b"/>
    <circle cx="18.275" cy="8.075" r="0.36" fill="#18181b"/>
    <circle cx="8.925" cy="8.925" r="0.36" fill="#18181b"/>
    <circle cx="9.775" cy="8.925" r="0.36" fill="#18181b"/>
    <circle cx="10.625" cy="8.925" r="0.36" fill="#18181b"/>
    <circle cx="11.475" cy="8.925" r="0.36" fill="#18181b"/>
    <circle cx="19.125" cy="8.925" r="0.36" fill="#18181b"/>
    <circle cx="19.975" cy="8.925" r="0.36" fill="#18181b"/>
    <circle cx="8.925" cy="9.775" r="0.36" fill="#18181b"/>
    <circle cx="9.775" cy="9.775" r="0.36" fill="#18181b"/>
    <circle cx="10.625" cy="9.775" r="0.36" fill="#18181b"/>
    <circle cx="11.475" cy="9.775" r="0.36" fill="#18181b"/>
    <circle cx="19.125" cy="9.775" r="0.36" fill="#18181b"/>
    <circle cx="3.825" cy="10.625" r="0.36" fill="#18181b"/>
    <circle cx="4.675" cy="10.625" r="0.36" fill="#18181b"/>
    <circle cx="5.525" cy="10.625" r="0.36" fill="#18181b"/>
    <circle cx="20.825" cy="10.625" r="0.36" fill="#18181b"/>
    <circle cx="21.675" cy="10.625" r="0.36" fill="#18181b"/>
    <circle cx="3.825" cy="16.575" r="0.36" fill="#18181b"/>
    <circle cx="4.675" cy="16.575" r="0.36" fill="#18181b"/>
    <circle cx="5.525" cy="16.575" r="0.36" fill="#18181b"/>
    <circle cx="19.975" cy="16.575" r="0.36" fill="#18181b"/>
    <circle cx="20.825" cy="16.575" r="0.36" fill="#18181b"/>
    <circle cx="7.225" cy="17.425" r="0.36" fill="#18181b"/>
    <circle cx="8.075" cy="17.425" r="0.36" fill="#18181b"/>
    <circle cx="16.575" cy="17.425" r="0.36" fill="#18181b"/>
    <circle cx="17.425" cy="17.425" r="0.36" fill="#18181b"/>
  </g>
  <text x="32" y="20.5" font-family="system-ui, -apple-system, sans-serif" font-size="17" font-weight="500" fill="#18181b" letter-spacing="0.5">naďve</text>
</svg>
